<?xml version="1.0"?>
<!-- <svg xmlns="http://www.w3.org/2000/svg" xmlns:xlink="http://www.w3.org/1999/xlink" version="1.1" id="Layer_1" x="0px" y="0px" viewBox="0 0 286.053 286.053" style="enable-background:new 0 0 286.053 286.053;" xml:space="preserve" width="512px" height="512px"><g><g>
	<path d="M129.162,204.922c10.62,10.62,16.672,11.031,27.72,0l81.212-83.242   c7.625-12.846,1.386-23.349-13.856-23.349h-36.517V17.878C187.723,8.01,179.713,0,169.845,0H116.21   c-9.869,0-17.878,8.01-17.878,17.878v80.453H61.806c-15.241,0-21.481,10.512-13.856,23.349L129.162,204.922z M268.176,241.358   H17.878C8.01,241.358,0,249.367,0,259.236v8.939c0,9.878,8.01,17.878,17.878,17.878h250.297c9.869,0,17.878-8.001,17.878-17.878   v-8.939C286.054,249.367,278.044,241.358,268.176,241.358z" data-original="#2394BC" class="active-path" data-old_color="#2394BC" fill="#2394BC"/>
</g></g> </svg> -->
<svg xmlns="http://www.w3.org/2000/svg" height="1em" viewBox="0 0 512 512"><!--! Font Awesome Free 6.4.0 by @fontawesome - https://fontawesome.com License - https://fontawesome.com/license (Commercial License) Copyright 2023 Fonticons, Inc. --><path d="M288 32c0-17.7-14.3-32-32-32s-32 14.3-32 32V274.7l-73.4-73.4c-12.5-12.5-32.8-12.5-45.3 0s-12.5 32.8 0 45.3l128 128c12.5 12.5 32.8 12.5 45.3 0l128-128c12.5-12.5 12.5-32.8 0-45.3s-32.8-12.5-45.3 0L288 274.7V32zM64 352c-35.3 0-64 28.7-64 64v32c0 35.3 28.7 64 64 64H448c35.3 0 64-28.7 64-64V416c0-35.3-28.7-64-64-64H346.5l-45.3 45.3c-25 25-65.5 25-90.5 0L165.5 352H64zm368 56a24 24 0 1 1 0 48 24 24 0 1 1 0-48z"/></svg>