<?xml version="1.0"?>
<!-- <svg xmlns="http://www.w3.org/2000/svg" xmlns:xlink="http://www.w3.org/1999/xlink" version="1.1" id="Layer_1" x="0px" y="0px" viewBox="0 0 399.14 399.14" style="enable-background:new 0 0 399.14 399.14;" xml:space="preserve" width="512px" height="512px"><g><path d="M270.658,0l-28.284,28.283l26.128,26.128c-32.18-1.854-64.62,3.555-95.279,16.253  C119.716,92.827,78.043,134.5,55.88,188.007c-14.501,35.008-19.606,73.27-14.764,110.648c4.694,36.234,18.58,70.98,40.157,100.484  l32.287-23.613c-36.8-50.319-44.548-114.698-20.725-172.213c33.256-80.286,119.206-123.111,201.279-105.055l-51.741,51.74  l28.284,28.285l89.142-89.143L270.658,0z" data-original="#2488FF" class="active-path" data-old_color="#2488FF" fill="#2488FF"/></g> </svg> -->
<svg xmlns="http://www.w3.org/2000/svg" height="1em" viewBox="0 0 512 512"><!--! Font Awesome Free 6.4.0 by @fontawesome - https://fontawesome.com License - https://fontawesome.com/license (Commercial License) Copyright 2023 Fonticons, Inc. --><path d="M463.5 224H472c13.3 0 24-10.7 24-24V72c0-9.7-5.8-18.5-14.8-22.2s-19.3-1.7-26.2 5.2L413.4 96.6c-87.6-86.5-228.7-86.2-315.8 1c-87.5 87.5-87.5 229.3 0 316.8s229.3 87.5 316.8 0c12.5-12.5 12.5-32.8 0-45.3s-32.8-12.5-45.3 0c-62.5 62.5-163.8 62.5-226.3 0s-62.5-163.8 0-226.3c62.2-62.2 162.7-62.5 225.3-1L327 183c-6.9 6.9-8.9 17.2-5.2 26.2s12.5 14.8 22.2 14.8H463.5z"/></svg>