<?xml version="1.0"?>
<!-- <svg xmlns="http://www.w3.org/2000/svg" xmlns:xlink="http://www.w3.org/1999/xlink" version="1.1" id="Layer_1" x="0px" y="0px" viewBox="0 0 399.14 399.14" style="enable-background:new 0 0 399.14 399.14;" xml:space="preserve" width="512px" height="512px"><g><path d="M343.26,188.007c-22.163-53.507-63.836-95.18-117.342-117.343  c-30.658-12.699-63.098-18.107-95.279-16.253l26.127-26.128L128.482,0L39.34,89.142l89.142,89.143l28.284-28.285l-51.742-51.742  c82.072-18.059,168.024,24.77,201.28,105.057c23.823,57.515,16.075,121.894-20.725,172.213l32.287,23.613  c21.577-29.504,35.463-64.25,40.157-100.484C362.866,261.276,357.761,223.015,343.26,188.007z" data-original="#2488FF" class="active-path" fill="#2488FF"/></g> </svg> -->
<svg xmlns="http://www.w3.org/2000/svg" height="1em" viewBox="0 0 512 512"><!--! Font Awesome Free 6.4.0 by @fontawesome - https://fontawesome.com License - https://fontawesome.com/license (Commercial License) Copyright 2023 Fonticons, Inc. --><path d="M125.7 160H176c17.7 0 32 14.3 32 32s-14.3 32-32 32H48c-17.7 0-32-14.3-32-32V64c0-17.7 14.3-32 32-32s32 14.3 32 32v51.2L97.6 97.6c87.5-87.5 229.3-87.5 316.8 0s87.5 229.3 0 316.8s-229.3 87.5-316.8 0c-12.5-12.5-12.5-32.8 0-45.3s32.8-12.5 45.3 0c62.5 62.5 163.8 62.5 226.3 0s62.5-163.8 0-226.3s-163.8-62.5-226.3 0L125.7 160z"/></svg>